# xmcd
#
# Track frame offsets: 
#        150
#        16732
#        39440
#        54524
#        69793
#        83699
#        105453
#        116317
#        136377
#        152992
#        167934
#        188556
#        201683
#        215679
#        227964
#        244751
#        260744
#        280377
#        292158
#        303504
#        317663
#        335655
#
# Disc length: 4688 seconds
#
# Revision: 0
# Processed by: cddbd v1.5.2PL0 Copyright (c) Steve Scherf et al.
# Submitted via: ExactAudioCopy v1.1
#
DISCID=49124e16
DTITLE=Various Artist - 50 Jaar Nederpop - CD 2 - 70's
DYEAR=2008
DGENRE=Pop
TTITLE0=Herman Brood and His Wild Romance - Saturday Night
TTITLE1=Golden Earring - Radar Love
TTITLE2=Earth and Fire - Memories
TTITLE3=Focus - Hocus Pocus
TTITLE4=Greenfield and Cook - Only Lies
TTITLE5=Kayak - Ruthless Queen
TTITLE6=Teach-In - Dinge-Dong
TTITLE7=Lucifer - House For Sale
TTITLE8=Normaal - Oerend Hard
TTITLE9=Solution - Empty Faces
TTITLE10=Pussycat - Mississippi
TTITLE11=Rob Hoeke Boogie Woogie Quartet - Down South
TTITLE12=Sandy Coast - True Love That's A Wonder
TTITLE13=Spooky and Sue - You Talk Too Much
TTITLE14=Supersister - She Was Naked
TTITLE15=Alexander Curly - I'll Never Drink Again
TTITLE16=Bonnie St. Claire - I Won't Stand Between Them
TTITLE17=Catapult - Let Your Hair Hang Down
TTITLE18=Dizzy Man's Band - Tickatoo
TTITLE19=Joey Dyser - 100 Years
TTITLE20=Left Side - (Like A) Locomotion
TTITLE21=Tee Set - She Likes Weeds
EXTD=
EXTT0=
EXTT1=
EXTT2=
EXTT3=
EXTT4=
EXTT5=
EXTT6=
EXTT7=
EXTT8=
EXTT9=
EXTT10=
EXTT11=
EXTT12=
EXTT13=
EXTT14=
EXTT15=
EXTT16=
EXTT17=
EXTT18=
EXTT19=
EXTT20=
EXTT21=
PLAYORDER=
